<svg id="visual" viewBox="0 0 900 600" width="900" height="600" xmlns="http://www.w3.org/2000/svg" xmlns:xlink="http://www.w3.org/1999/xlink" version="1.1"><rect x="0" y="0" width="900" height="600" fill="#232946"></rect><path d="M0 383L21.5 379C43 375 86 367 128.8 363.7C171.7 360.3 214.3 361.7 257.2 359.5C300 357.3 343 351.7 385.8 353.7C428.7 355.7 471.3 365.3 514.2 370.2C557 375 600 375 642.8 372.8C685.7 370.7 728.3 366.3 771.2 362.3C814 358.3 857 354.7 878.5 352.8L900 351L900 601L878.5 601C857 601 814 601 771.2 601C728.3 601 685.7 601 642.8 601C600 601 557 601 514.2 601C471.3 601 428.7 601 385.8 601C343 601 300 601 257.2 601C214.3 601 171.7 601 128.8 601C86 601 43 601 21.5 601L0 601Z" fill="#232946"></path><path d="M0 371L21.5 373.2C43 375.3 86 379.7 128.8 380C171.7 380.3 214.3 376.7 257.2 377C300 377.3 343 381.7 385.8 382.8C428.7 384 471.3 382 514.2 381.2C557 380.3 600 380.7 642.8 380.3C685.7 380 728.3 379 771.2 383.2C814 387.3 857 396.7 878.5 401.3L900 406L900 601L878.5 601C857 601 814 601 771.2 601C728.3 601 685.7 601 642.8 601C600 601 557 601 514.2 601C471.3 601 428.7 601 385.8 601C343 601 300 601 257.2 601C214.3 601 171.7 601 128.8 601C86 601 43 601 21.5 601L0 601Z" fill="#43355d"></path><path d="M0 410L21.5 409.7C43 409.3 86 408.7 128.8 409C171.7 409.3 214.3 410.7 257.2 412.2C300 413.7 343 415.3 385.8 416.5C428.7 417.7 471.3 418.3 514.2 417.3C557 416.3 600 413.7 642.8 417.2C685.7 420.7 728.3 430.3 771.2 431.8C814 433.3 857 426.7 878.5 423.3L900 420L900 601L878.5 601C857 601 814 601 771.2 601C728.3 601 685.7 601 642.8 601C600 601 557 601 514.2 601C471.3 601 428.7 601 385.8 601C343 601 300 601 257.2 601C214.3 601 171.7 601 128.8 601C86 601 43 601 21.5 601L0 601Z" fill="#683f6e"></path><path d="M0 454L21.5 453C43 452 86 450 128.8 451.2C171.7 452.3 214.3 456.7 257.2 456.2C300 455.7 343 450.3 385.8 447.2C428.7 444 471.3 443 514.2 448C557 453 600 464 642.8 465.3C685.7 466.7 728.3 458.3 771.2 457.5C814 456.7 857 463.3 878.5 466.7L900 470L900 601L878.5 601C857 601 814 601 771.2 601C728.3 601 685.7 601 642.8 601C600 601 557 601 514.2 601C471.3 601 428.7 601 385.8 601C343 601 300 601 257.2 601C214.3 601 171.7 601 128.8 601C86 601 43 601 21.5 601L0 601Z" fill="#914778"></path><path d="M0 477L21.5 479.3C43 481.7 86 486.3 128.8 487.7C171.7 489 214.3 487 257.2 489.7C300 492.3 343 499.7 385.8 501C428.7 502.3 471.3 497.7 514.2 497.5C557 497.3 600 501.7 642.8 502.2C685.7 502.7 728.3 499.3 771.2 497C814 494.7 857 493.3 878.5 492.7L900 492L900 601L878.5 601C857 601 814 601 771.2 601C728.3 601 685.7 601 642.8 601C600 601 557 601 514.2 601C471.3 601 428.7 601 385.8 601C343 601 300 601 257.2 601C214.3 601 171.7 601 128.8 601C86 601 43 601 21.5 601L0 601Z" fill="#b9507a"></path><path d="M0 521L21.5 522C43 523 86 525 128.8 525.2C171.7 525.3 214.3 523.7 257.2 524.2C300 524.7 343 527.3 385.8 527.8C428.7 528.3 471.3 526.7 514.2 527.3C557 528 600 531 642.8 530.5C685.7 530 728.3 526 771.2 526.7C814 527.3 857 532.7 878.5 535.3L900 538L900 601L878.5 601C857 601 814 601 771.2 601C728.3 601 685.7 601 642.8 601C600 601 557 601 514.2 601C471.3 601 428.7 601 385.8 601C343 601 300 601 257.2 601C214.3 601 171.7 601 128.8 601C86 601 43 601 21.5 601L0 601Z" fill="#dd5e74"></path><path d="M0 573L21.5 572.3C43 571.7 86 570.3 128.8 566.8C171.7 563.3 214.3 557.7 257.2 556.7C300 555.7 343 559.3 385.8 563C428.7 566.7 471.3 570.3 514.2 568.8C557 567.3 600 560.7 642.8 558.2C685.7 555.7 728.3 557.3 771.2 560C814 562.7 857 566.3 878.5 568.2L900 570L900 601L878.5 601C857 601 814 601 771.2 601C728.3 601 685.7 601 642.8 601C600 601 557 601 514.2 601C471.3 601 428.7 601 385.8 601C343 601 300 601 257.2 601C214.3 601 171.7 601 128.8 601C86 601 43 601 21.5 601L0 601Z" fill="#fa7268"></path></svg>