<svg id="visual" viewBox="0 0 960 300" width="960" height="300" xmlns="http://www.w3.org/2000/svg" xmlns:xlink="http://www.w3.org/1999/xlink" version="1.1"><rect x="0" y="0" width="960" height="300" fill="#232946"></rect><path d="M0 185L16 186C32 187 64 189 96 189.2C128 189.3 160 187.7 192 182.2C224 176.7 256 167.3 288 164.2C320 161 352 164 384 166C416 168 448 169 480 165.5C512 162 544 154 576 151.7C608 149.3 640 152.7 672 159.5C704 166.3 736 176.7 768 174.5C800 172.3 832 157.7 864 155.3C896 153 928 163 944 168L960 173L960 301L944 301C928 301 896 301 864 301C832 301 800 301 768 301C736 301 704 301 672 301C640 301 608 301 576 301C544 301 512 301 480 301C448 301 416 301 384 301C352 301 320 301 288 301C256 301 224 301 192 301C160 301 128 301 96 301C64 301 32 301 16 301L0 301Z" fill="#232946"></path><path d="M0 203L16 201.7C32 200.3 64 197.7 96 192.7C128 187.7 160 180.3 192 175.2C224 170 256 167 288 165.2C320 163.3 352 162.7 384 166.5C416 170.3 448 178.7 480 183.8C512 189 544 191 576 195C608 199 640 205 672 202.3C704 199.7 736 188.3 768 180.3C800 172.3 832 167.7 864 169C896 170.3 928 177.7 944 181.3L960 185L960 301L944 301C928 301 896 301 864 301C832 301 800 301 768 301C736 301 704 301 672 301C640 301 608 301 576 301C544 301 512 301 480 301C448 301 416 301 384 301C352 301 320 301 288 301C256 301 224 301 192 301C160 301 128 301 96 301C64 301 32 301 16 301L0 301Z" fill="#43355d"></path><path d="M0 194L16 197.8C32 201.7 64 209.3 96 213.2C128 217 160 217 192 211.5C224 206 256 195 288 196.5C320 198 352 212 384 216.5C416 221 448 216 480 214.3C512 212.7 544 214.3 576 217.3C608 220.3 640 224.7 672 219.8C704 215 736 201 768 192.8C800 184.7 832 182.3 864 183.8C896 185.3 928 190.7 944 193.3L960 196L960 301L944 301C928 301 896 301 864 301C832 301 800 301 768 301C736 301 704 301 672 301C640 301 608 301 576 301C544 301 512 301 480 301C448 301 416 301 384 301C352 301 320 301 288 301C256 301 224 301 192 301C160 301 128 301 96 301C64 301 32 301 16 301L0 301Z" fill="#683f6e"></path><path d="M0 210L16 214C32 218 64 226 96 227.5C128 229 160 224 192 220.7C224 217.3 256 215.7 288 218C320 220.3 352 226.7 384 225.7C416 224.7 448 216.3 480 211.2C512 206 544 204 576 204C608 204 640 206 672 206.5C704 207 736 206 768 211.7C800 217.3 832 229.7 864 233.2C896 236.7 928 231.3 944 228.7L960 226L960 301L944 301C928 301 896 301 864 301C832 301 800 301 768 301C736 301 704 301 672 301C640 301 608 301 576 301C544 301 512 301 480 301C448 301 416 301 384 301C352 301 320 301 288 301C256 301 224 301 192 301C160 301 128 301 96 301C64 301 32 301 16 301L0 301Z" fill="#914778"></path><path d="M0 256L16 251.5C32 247 64 238 96 233.3C128 228.7 160 228.3 192 227.7C224 227 256 226 288 226.7C320 227.3 352 229.7 384 235.2C416 240.7 448 249.3 480 250.7C512 252 544 246 576 240.3C608 234.7 640 229.3 672 228.5C704 227.7 736 231.3 768 231.5C800 231.7 832 228.3 864 229.2C896 230 928 235 944 237.5L960 240L960 301L944 301C928 301 896 301 864 301C832 301 800 301 768 301C736 301 704 301 672 301C640 301 608 301 576 301C544 301 512 301 480 301C448 301 416 301 384 301C352 301 320 301 288 301C256 301 224 301 192 301C160 301 128 301 96 301C64 301 32 301 16 301L0 301Z" fill="#b9507a"></path><path d="M0 263L16 261.8C32 260.7 64 258.3 96 255.7C128 253 160 250 192 249.3C224 248.7 256 250.3 288 250C320 249.7 352 247.3 384 247.7C416 248 448 251 480 253C512 255 544 256 576 254.7C608 253.3 640 249.7 672 252C704 254.3 736 262.7 768 263.7C800 264.7 832 258.3 864 256.5C896 254.7 928 257.3 944 258.7L960 260L960 301L944 301C928 301 896 301 864 301C832 301 800 301 768 301C736 301 704 301 672 301C640 301 608 301 576 301C544 301 512 301 480 301C448 301 416 301 384 301C352 301 320 301 288 301C256 301 224 301 192 301C160 301 128 301 96 301C64 301 32 301 16 301L0 301Z" fill="#dd5e74"></path><path d="M0 281L16 278.7C32 276.3 64 271.7 96 270.3C128 269 160 271 192 271.2C224 271.3 256 269.7 288 270.5C320 271.3 352 274.7 384 274.3C416 274 448 270 480 271.8C512 273.7 544 281.3 576 281.7C608 282 640 275 672 271.5C704 268 736 268 768 270.5C800 273 832 278 864 280.3C896 282.7 928 282.3 944 282.2L960 282L960 301L944 301C928 301 896 301 864 301C832 301 800 301 768 301C736 301 704 301 672 301C640 301 608 301 576 301C544 301 512 301 480 301C448 301 416 301 384 301C352 301 320 301 288 301C256 301 224 301 192 301C160 301 128 301 96 301C64 301 32 301 16 301L0 301Z" fill="#fa7268"></path></svg>