<svg id="visual" viewBox="0 0 930 300" width="930" height="300" xmlns="http://www.w3.org/2000/svg" xmlns:xlink="http://www.w3.org/1999/xlink" version="1.1"><rect x="0" y="0" width="930" height="300" fill="#FA7268"></rect><path d="M0 205L22.2 200C44.3 195 88.7 185 133 180.5C177.3 176 221.7 177 266 184.7C310.3 192.3 354.7 206.7 398.8 209C443 211.3 487 201.7 531.2 197.3C575.3 193 619.7 194 664 196.8C708.3 199.7 752.7 204.3 797 204C841.3 203.7 885.7 198.3 907.8 195.7L930 193L930 301L907.8 301C885.7 301 841.3 301 797 301C752.7 301 708.3 301 664 301C619.7 301 575.3 301 531.2 301C487 301 443 301 398.8 301C354.7 301 310.3 301 266 301C221.7 301 177.3 301 133 301C88.7 301 44.3 301 22.2 301L0 301Z" fill="#fa7268"></path><path d="M0 227L22.2 223.8C44.3 220.7 88.7 214.3 133 211.5C177.3 208.7 221.7 209.3 266 213C310.3 216.7 354.7 223.3 398.8 227.8C443 232.3 487 234.7 531.2 236.2C575.3 237.7 619.7 238.3 664 232.7C708.3 227 752.7 215 797 211.5C841.3 208 885.7 213 907.8 215.5L930 218L930 301L907.8 301C885.7 301 841.3 301 797 301C752.7 301 708.3 301 664 301C619.7 301 575.3 301 531.2 301C487 301 443 301 398.8 301C354.7 301 310.3 301 266 301C221.7 301 177.3 301 133 301C88.7 301 44.3 301 22.2 301L0 301Z" fill="#cc5678"></path><path d="M0 241L22.2 242C44.3 243 88.7 245 133 241.8C177.3 238.7 221.7 230.3 266 225.5C310.3 220.7 354.7 219.3 398.8 221.5C443 223.7 487 229.3 531.2 230.2C575.3 231 619.7 227 664 230C708.3 233 752.7 243 797 242.8C841.3 242.7 885.7 232.3 907.8 227.2L930 222L930 301L907.8 301C885.7 301 841.3 301 797 301C752.7 301 708.3 301 664 301C619.7 301 575.3 301 531.2 301C487 301 443 301 398.8 301C354.7 301 310.3 301 266 301C221.7 301 177.3 301 133 301C88.7 301 44.3 301 22.2 301L0 301Z" fill="#914778"></path><path d="M0 247L22.2 247C44.3 247 88.7 247 133 248.2C177.3 249.3 221.7 251.7 266 252.2C310.3 252.7 354.7 251.3 398.8 250.3C443 249.3 487 248.7 531.2 251.5C575.3 254.3 619.7 260.7 664 262.8C708.3 265 752.7 263 797 262.5C841.3 262 885.7 263 907.8 263.5L930 264L930 301L907.8 301C885.7 301 841.3 301 797 301C752.7 301 708.3 301 664 301C619.7 301 575.3 301 531.2 301C487 301 443 301 398.8 301C354.7 301 310.3 301 266 301C221.7 301 177.3 301 133 301C88.7 301 44.3 301 22.2 301L0 301Z" fill="#553a66"></path><path d="M0 285L22.2 282C44.3 279 88.7 273 133 272.3C177.3 271.7 221.7 276.3 266 278.8C310.3 281.3 354.7 281.7 398.8 282.3C443 283 487 284 531.2 283.8C575.3 283.7 619.7 282.3 664 281.8C708.3 281.3 752.7 281.7 797 282C841.3 282.3 885.7 282.7 907.8 282.8L930 283L930 301L907.8 301C885.7 301 841.3 301 797 301C752.7 301 708.3 301 664 301C619.7 301 575.3 301 531.2 301C487 301 443 301 398.8 301C354.7 301 310.3 301 266 301C221.7 301 177.3 301 133 301C88.7 301 44.3 301 22.2 301L0 301Z" fill="#232946"></path></svg>